<svg xmlns="http://www.w3.org/2000/svg" viewBox="0 0 512 512" role="img" aria-label="devlzlab daemon app icon">
  <title>devlzlab daemon app icon</title>
  <desc>Pixel-grid daemon symbol reconstructed as editable vector squares.</desc>
  <rect x="16" y="16" width="480" height="480" rx="112" fill="#0b0b0c" stroke="#303033" stroke-width="2"/>
    <g shape-rendering="crispEdges">
    <rect x="141" y="60.5" width="20" height="20" opacity="0.65" fill="#858585"/>
    <rect x="348" y="60.5" width="20" height="20" opacity="0.65" fill="#858585"/>
    <rect x="141" y="83.5" width="20" height="20" opacity="0.65" fill="#858585"/>
    <rect x="348" y="83.5" width="20" height="20" opacity="0.65" fill="#858585"/>
    <rect x="118" y="106.5" width="20" height="20" fill="#f5f5f4"/>
    <rect x="371" y="106.5" width="20" height="20" fill="#f5f5f4"/>
    <rect x="95" y="129.5" width="20" height="20" opacity="0.65" fill="#858585"/>
    <rect x="118" y="129.5" width="20" height="20" fill="#f5f5f4"/>
    <rect x="371" y="129.5" width="20" height="20" fill="#f5f5f4"/>
    <rect x="394" y="129.5" width="20" height="20" opacity="0.65" fill="#858585"/>
    <rect x="95" y="152.5" width="20" height="20" fill="#f5f5f4"/>
    <rect x="118" y="152.5" width="20" height="20" fill="#f5f5f4"/>
    <rect x="141" y="152.5" width="20" height="20" opacity="0.65" fill="#858585"/>
    <rect x="348" y="152.5" width="20" height="20" opacity="0.65" fill="#858585"/>
    <rect x="371" y="152.5" width="20" height="20" fill="#f5f5f4"/>
    <rect x="394" y="152.5" width="20" height="20" fill="#f5f5f4"/>
    <rect x="95" y="175.5" width="20" height="20" fill="#f5f5f4"/>
    <rect x="118" y="175.5" width="20" height="20" fill="#f5f5f4"/>
    <rect x="141" y="175.5" width="20" height="20" fill="#f5f5f4"/>
    <rect x="164" y="175.5" width="20" height="20" opacity="0.65" fill="#858585"/>
    <rect x="325" y="175.5" width="20" height="20" opacity="0.65" fill="#858585"/>
    <rect x="348" y="175.5" width="20" height="20" fill="#f5f5f4"/>
    <rect x="371" y="175.5" width="20" height="20" fill="#f5f5f4"/>
    <rect x="394" y="175.5" width="20" height="20" fill="#f5f5f4"/>
    <rect x="118" y="198.5" width="20" height="20" fill="#f5f5f4"/>
    <rect x="141" y="198.5" width="20" height="20" fill="#f5f5f4"/>
    <rect x="164" y="198.5" width="20" height="20" fill="#f5f5f4"/>
    <rect x="187" y="198.5" width="20" height="20" opacity="0.65" fill="#858585"/>
    <rect x="302" y="198.5" width="20" height="20" opacity="0.65" fill="#858585"/>
    <rect x="325" y="198.5" width="20" height="20" fill="#f5f5f4"/>
    <rect x="348" y="198.5" width="20" height="20" fill="#f5f5f4"/>
    <rect x="371" y="198.5" width="20" height="20" fill="#f5f5f4"/>
    <rect x="118" y="221.5" width="20" height="20" fill="#f5f5f4"/>
    <rect x="141" y="221.5" width="20" height="20" fill="#f5f5f4"/>
    <rect x="164" y="221.5" width="20" height="20" fill="#f5f5f4"/>
    <rect x="187" y="221.5" width="20" height="20" fill="#f5f5f4"/>
    <rect x="210" y="221.5" width="20" height="20" opacity="0.65" fill="#858585"/>
    <rect x="279" y="221.5" width="20" height="20" opacity="0.65" fill="#858585"/>
    <rect x="302" y="221.5" width="20" height="20" fill="#f5f5f4"/>
    <rect x="325" y="221.5" width="20" height="20" fill="#f5f5f4"/>
    <rect x="348" y="221.5" width="20" height="20" fill="#f5f5f4"/>
    <rect x="371" y="221.5" width="20" height="20" fill="#f5f5f4"/>
    <rect x="141" y="244.5" width="20" height="20" fill="#f5f5f4"/>
    <rect x="164" y="244.5" width="20" height="20" fill="#f5f5f4"/>
    <rect x="187" y="244.5" width="20" height="20" fill="#f5f5f4"/>
    <rect x="210" y="244.5" width="20" height="20" fill="#f5f5f4"/>
    <rect x="233" y="244.5" width="20" height="20" fill="#f5f5f4"/>
    <rect x="256" y="244.5" width="20" height="20" fill="#f5f5f4"/>
    <rect x="279" y="244.5" width="20" height="20" fill="#f5f5f4"/>
    <rect x="302" y="244.5" width="20" height="20" fill="#f5f5f4"/>
    <rect x="325" y="244.5" width="20" height="20" fill="#f5f5f4"/>
    <rect x="348" y="244.5" width="20" height="20" fill="#f5f5f4"/>
    <rect x="187" y="267.5" width="20" height="20" fill="#f5f5f4"/>
    <rect x="210" y="267.5" width="20" height="20" fill="#f5f5f4"/>
    <rect x="233" y="267.5" width="20" height="20" fill="#f5f5f4"/>
    <rect x="256" y="267.5" width="20" height="20" fill="#f5f5f4"/>
    <rect x="279" y="267.5" width="20" height="20" fill="#f5f5f4"/>
    <rect x="302" y="267.5" width="20" height="20" fill="#f5f5f4"/>
    <rect x="164" y="290.5" width="20" height="20" fill="#f5f5f4"/>
    <rect x="210" y="290.5" width="20" height="20" fill="#f5f5f4"/>
    <rect x="233" y="290.5" width="20" height="20" fill="#f5f5f4"/>
    <rect x="256" y="290.5" width="20" height="20" fill="#f5f5f4"/>
    <rect x="279" y="290.5" width="20" height="20" fill="#f5f5f4"/>
    <rect x="325" y="290.5" width="20" height="20" fill="#f5f5f4"/>
    <rect x="187" y="313.5" width="20" height="20" fill="#ff5b20"/>
    <rect x="233" y="313.5" width="20" height="20" fill="#f5f5f4"/>
    <rect x="256" y="313.5" width="20" height="20" fill="#f5f5f4"/>
    <rect x="302" y="313.5" width="20" height="20" fill="#ff5b20"/>
    <rect x="164" y="336.5" width="20" height="20" opacity="0.65" fill="#858585"/>
    <rect x="233" y="336.5" width="20" height="20" fill="#f5f5f4"/>
    <rect x="256" y="336.5" width="20" height="20" fill="#f5f5f4"/>
    <rect x="325" y="336.5" width="20" height="20" opacity="0.65" fill="#858585"/>
    <rect x="187" y="359.5" width="20" height="20" fill="#f5f5f4"/>
    <rect x="233" y="359.5" width="20" height="20" fill="#f5f5f4"/>
    <rect x="256" y="359.5" width="20" height="20" fill="#f5f5f4"/>
    <rect x="302" y="359.5" width="20" height="20" fill="#f5f5f4"/>
    <rect x="187" y="382.5" width="20" height="20" fill="#f5f5f4"/>
    <rect x="233" y="382.5" width="20" height="20" fill="#f5f5f4"/>
    <rect x="256" y="382.5" width="20" height="20" fill="#f5f5f4"/>
    <rect x="302" y="382.5" width="20" height="20" fill="#f5f5f4"/>
    <rect x="233" y="405.5" width="20" height="20" fill="#f5f5f4"/>
    <rect x="233" y="428.5" width="20" height="20" opacity="0.65" fill="#858585"/>
  </g>
</svg>
